<svg xmlns="http://www.w3.org/2000/svg" version="1.1" xmlns:xlink="http://www.w3.org/1999/xlink" viewBox="0 0 200 200"><rect width="200" height="200" fill="url('#gradient')"></rect><defs><linearGradient id="gradient" gradientTransform="rotate(45 0.5 0.5)"><stop offset="0%" stop-color="#353664"></stop><stop offset="100%" stop-color="#211c36"></stop></linearGradient></defs><g><g fill="#919179" transform="matrix(3.2430720506730006,0,0,3.2430720506730006,57.40248287710423,123.06249932268736)" stroke="#ffffff" stroke-width="0.3"><path d="M12.71-7.60L12.71-1.76Q11.92-0.88 10.40-0.34Q8.88 0.20 7.06 0.20L7.06 0.20Q4.27 0.20 2.60-1.51Q0.93-3.22 0.81-6.27L0.81-6.27L0.80-7.50Q0.80-9.60 1.54-11.17Q2.29-12.73 3.67-13.58Q5.05-14.42 6.87-14.42L6.87-14.42Q9.52-14.42 10.99-13.21Q12.46-11.99 12.71-9.58L12.71-9.58L9.40-9.58Q9.23-10.77 8.64-11.28Q8.06-11.79 6.98-11.79L6.98-11.79Q5.69-11.79 4.99-10.69Q4.29-9.60 4.28-7.57L4.28-7.57L4.28-6.71Q4.28-4.58 5.00-3.51Q5.73-2.44 7.29-2.44L7.29-2.44Q8.63-2.44 9.29-3.04L9.29-3.04L9.29-5.24L6.90-5.24L6.90-7.60L12.71-7.60ZM22.04-3.78L22.04-3.78Q22.04-4.53 21.51-4.95Q20.98-5.37 19.64-5.82Q18.30-6.27 17.45-6.69L17.45-6.69Q14.69-8.05 14.69-10.42L14.69-10.42Q14.69-11.60 15.38-12.50Q16.06-13.41 17.32-13.91Q18.58-14.41 20.16-14.41L20.16-14.41Q21.69-14.41 22.91-13.87Q24.12-13.32 24.79-12.31Q25.47-11.30 25.47-10L25.47-10L22.05-10Q22.05-10.87 21.52-11.35Q20.99-11.83 20.08-11.83L20.08-11.83Q19.16-11.83 18.63-11.42Q18.10-11.02 18.10-10.39L18.10-10.39Q18.10-9.84 18.68-9.40Q19.27-8.96 20.74-8.48Q22.22-8.01 23.16-7.46L23.16-7.46Q25.47-6.13 25.47-3.80L25.47-3.80Q25.47-1.93 24.06-0.87Q22.66 0.20 20.21 0.20L20.21 0.20Q18.48 0.20 17.08-0.42Q15.67-1.04 14.97-2.12Q14.26-3.20 14.26-4.61L14.26-4.61L17.70-4.61Q17.70-3.47 18.29-2.92Q18.88-2.38 20.21-2.38L20.21-2.38Q21.05-2.38 21.55-2.75Q22.04-3.12 22.04-3.78Z"></path></g></g></svg>